<svg width="16" height="16" viewBox="0 0 16 16" fill="none" xmlns="http://www.w3.org/2000/svg">
<circle cx="8" cy="8" r="8" fill="#EEEEF2"/>
<path d="M12 8H4" stroke="#56597D" stroke-linecap="round" stroke-linejoin="round"/>
<path d="M5.38 5.41625L4 8V10.25C4 10.4489 4.08429 10.6397 4.23431 10.7803C4.38434 10.921 4.58783 11 4.8 11H11.2C11.4122 11 11.6157 10.921 11.7657 10.7803C11.9157 10.6397 12 10.4489 12 10.25V8L10.62 5.41625C10.5538 5.2913 10.4517 5.18614 10.3252 5.1126C10.1987 5.03907 10.0528 5.00007 9.904 5H6.096C5.94717 5.00007 5.80131 5.03907 5.67482 5.1126C5.54833 5.18614 5.44623 5.2913 5.38 5.41625V5.41625Z" stroke="#56597D" stroke-linecap="round" stroke-linejoin="round"/>
</svg>
