<svg width="16" height="16" viewBox="0 0 16 16" fill="none" xmlns="http://www.w3.org/2000/svg">
<circle opacity="0.1" cx="8" cy="8" r="8" fill="#EA253B"/>
<path d="M10.357 9.12826L8.94281 7.71404L10.357 6.29983C10.482 6.17481 10.5523 6.00524 10.5523 5.82843C10.5523 5.65162 10.482 5.48205 10.357 5.35702C10.232 5.232 10.0624 5.16176 9.88562 5.16176C9.70881 5.16176 9.53924 5.232 9.41421 5.35702L8 6.77124L6.58579 5.35702C6.46076 5.232 6.29119 5.16176 6.11438 5.16176C5.93757 5.16176 5.768 5.232 5.64298 5.35702C5.51795 5.48205 5.44772 5.65162 5.44772 5.82843C5.44772 6.00524 5.51795 6.17481 5.64298 6.29983L7.05719 7.71404L5.64298 9.12826C5.51795 9.25328 5.44771 9.42285 5.44771 9.59966C5.44771 9.77647 5.51795 9.94604 5.64298 10.0711C5.768 10.1961 5.93757 10.2663 6.11438 10.2663C6.29119 10.2663 6.46076 10.1961 6.58579 10.0711L8 8.65685L9.41421 10.0711C9.53924 10.1961 9.70881 10.2663 9.88562 10.2663C10.0624 10.2663 10.232 10.1961 10.357 10.0711C10.482 9.94604 10.5523 9.77647 10.5523 9.59966C10.5523 9.42285 10.482 9.25328 10.357 9.12826Z" fill="#EA253B"/>
</svg>
