<svg width="16" height="16" viewBox="0 0 16 16" fill="none" xmlns="http://www.w3.org/2000/svg">
<circle opacity="0.1" cx="8" cy="8" r="8" fill="#20CD7A"/>
<path d="M9.81333 5.86L6.95333 8.72667L5.85333 7.62667C5.79356 7.55688 5.72002 7.5002 5.63731 7.46018C5.5546 7.42017 5.46451 7.39768 5.3727 7.39413C5.28088 7.39059 5.18933 7.40606 5.10378 7.43957C5.01823 7.47309 4.94053 7.52393 4.87556 7.5889C4.81059 7.65387 4.75975 7.73157 4.72624 7.81712C4.69272 7.90267 4.67725 7.99422 4.68079 8.08603C4.68434 8.17785 4.70683 8.26794 4.74684 8.35065C4.78686 8.43336 4.84354 8.5069 4.91333 8.56667L6.47999 10.14C6.54229 10.2018 6.61616 10.2507 6.69739 10.2838C6.77861 10.317 6.86559 10.3338 6.95333 10.3333C7.12822 10.3326 7.29582 10.2632 7.41999 10.14L10.7533 6.80667C10.8158 6.74469 10.8654 6.67096 10.8993 6.58972C10.9331 6.50848 10.9505 6.42134 10.9505 6.33333C10.9505 6.24532 10.9331 6.15819 10.8993 6.07695C10.8654 5.99571 10.8158 5.92197 10.7533 5.86C10.6284 5.73583 10.4595 5.66614 10.2833 5.66614C10.1072 5.66614 9.93824 5.73583 9.81333 5.86Z" fill="#20CD7A"/>
</svg>
