<svg class="header__logo-image" version="1.1" xmlns="http://www.w3.org/2000/svg" x="0" y="0" viewBox="0 0 655 655" xml:space="preserve"> <g fill="#fe0000"> <g id="layer101"> <path d="M292 602.5c-50.6-6.2-95.9-24.5-136.3-55.2-14.3-10.8-40.3-37.1-51.3-51.8-36.7-49.1-55.7-106.1-55.3-166 .3-45.8 9.5-84.3 29.5-123.6 12.8-25.2 27.6-45.9 47.4-66.3 15.5-16 27.9-26.4 44-37.1 39.5-26.3 79.2-40.5 126.9-45.6 16.3-1.7 53-.6 68.7 2 35.2 6 63.4 15.9 93.1 32.7 77 43.6 128.8 123.2 137.3 210.9 1.3 13.1 1.3 44.6 0 56-6 53.5-26.5 102.9-59.7 144-9.3 11.5-31.1 33.1-42.7 42.4-22.9 18.2-49.7 33.1-77.9 43.2-17.9 6.4-33.6 10.2-60.2 14.4-8.2 1.3-52.9 1.3-63.5 0zm133-147.8c1.4-.7 3.1-2.4 3.8-3.9 1.1-2.3.7-3.9-2.7-13.9-12.4-35.9-32.7-66.2-55.1-82.5-8.7-6.3-14.1-9.2-23.8-12.4-50.1-16.8-96.7 16.1-124.6 87.8-6.8 17.3-7.1 22.1-1.6 24.9 3.7 1.9 200.4 1.8 204 0zm-67.5-134.3c53.2-5.5 107.8-23.1 155.5-50.2 15.3-8.7 30.5-18.8 35.8-23.9 5.3-5.1 5.4-8 .2-10.5-3.3-1.7-16.1-1.8-225.5-1.7-169.3 0-222.8.3-225.4 1.2-7.6 2.7-5.3 8.7 6.4 16.9 54.7 38.2 128.8 64.7 193.5 69.1 12.1.8 48 .3 59.5-.9zM714.5 441.3c-12.9-1.7-25-7.8-34.6-17.3-8.5-8.3-13.1-16.6-15.4-27.3-1.5-7.3-1.3-21.1.5-28.2 4.4-17.5 17.6-32 34.3-37.4 10-3.2 20.2-4.1 48.8-4.1H775v-11.3c0-14.6-1.6-20.4-7-25-5.7-4.9-12.5-6.8-26.1-7.4-19.3-.9-29.4 1.8-36.1 9.7-1.9 2.2-3.8 4-4.2 4-1.1 0-28.6-22-28.6-22.9 0-1.6 11.7-12.6 17.3-16.2 12.5-8.1 25-11.1 46.2-11.1 35.6.1 60.1 11 69.2 30.8 5.9 12.9 5.7 9.6 6 89.2l.4 73.2H775v-7.5c0-4.1-.3-7.5-.6-7.5-.4 0-2.4 2-4.5 4.4-4.5 5.1-12.6 9.2-21.9 11.2-6 1.3-26.1 1.7-33.5.7zm39-36.8c9-1.7 13.1-3.8 16.2-8.4 3.5-5.2 4.4-9.6 5-23.9l.6-13.4-27.9.4c-22.7.4-28.9.8-33.2 2.2-5.8 1.9-11.5 6.3-13.9 10.9-1.9 3.8-1.9 14.7.1 18.5 1.7 3.2 8.1 9.4 11.6 11.3 7.3 3.8 27.9 5 41.5 2.4zM1040 441.4c-16.7-3.2-32.9-11.3-43-21.5-10.2-10.3-19-28.8-22.5-47.4-1.1-6-1.4-13.6-1.1-30.5.3-28.5 2-36.7 11.1-55.5 9.6-19.7 25-32.2 46.6-37.6 11-2.8 29.7-2.3 40.4 1.1 25.7 8.2 43.5 26.6 50.6 52.5 1.9 6.9 2.2 11.4 2.6 32.3l.5 24.2h-115.5l.7 7.1c1.2 13.5 6.7 23.9 16.2 31.2 6.8 5.2 14.3 7.8 24.4 8.4 13.6.8 24.9-2.9 35.9-11.9 3-2.4 5.9-4.7 6.6-5.2.9-.7 5 2.3 14.1 10.4 7.1 6.3 13.1 11.5 13.3 11.7.9.7-10.4 11.5-16.5 15.9-7.3 5.2-18.6 10.7-26.9 13-5.9 1.6-31.7 2.8-37.5 1.8zm47.4-119.1c-.8-7.2-3.1-15.8-5.4-20.4-3.1-5.9-10.2-12.7-16.8-15.7-5-2.4-6.9-2.7-16.2-2.7-9.4 0-11.1.3-16.5 2.8-7.6 3.6-12.9 8.6-16.7 16.1-2.9 5.8-5.7 16.4-5.8 21.9v2.7h77.9l-.5-4.7zM1378.6 439.9c-21.1-5.2-37.3-20.3-43.2-40.4-2.2-7.7-2.2-22.7 0-31.4 5-19.5 20-34.1 39.7-38.5 9.3-2.1 16.4-2.5 44.7-2.5l25.2-.1v-12.7c0-14.9-1.3-19-7.6-24.1-5.4-4.5-12-6.3-25.5-6.9-19.4-.9-29.9 2-36.7 10.3-2.1 2.5-3.4 3.4-4.4 2.8-.7-.4-7.3-5.5-14.5-11.2-10.8-8.5-13.1-10.7-12.4-12 1.5-2.8 12.2-12.6 17.1-15.7 11.6-7.3 25.6-10.7 44.5-10.7 33.2 0 55.8 8.5 67.3 25.3 4.2 6.2 8.1 18.1 9.1 28.2.5 4.5.8 37.7.7 73.7l-.1 65.5-18.7.3-18.8.2V423.7l-4.1 4.7c-5.3 6-10.8 9.1-20.4 11.6-10.6 2.7-30.6 2.7-41.9-.1zm50.4-36.4c6.6-2.1 12.3-7.3 14-13 .7-2.2 1.5-10.2 1.7-17.7l.5-13.8h-23.8c-26.4 0-34.2.9-41.4 4.5-7.4 3.7-10.4 8.3-10.8 16.5-.3 5.3 0 7.5 1.6 10.7 3.7 7.2 11.1 12.3 20.6 14.3 6.6 1.5 31.3.4 37.6-1.5zM854 344.5V249h37V269.3l5.4-5.1c7-6.6 14.8-11.6 22.7-14.3 8.7-3.1 25.9-3.8 35-1.5 7.7 2 17.2 6.4 21.7 10.3l3.3 2.8-13.6 16.6-13.6 16.7-5.1-3.4c-13.7-9.3-30.8-8.1-43.5 3-5.7 5-10.1 14.1-11.3 23.6-.5 4.1-1 33.3-1 64.8V440h-37v-95.5zM1158 344.5V249h37v9.5c0 5.2.3 9.5.6 9.5.4 0 3.2-2.4 6.4-5.4 11.6-10.7 21.4-14.6 38.7-15.3 11.2-.5 12.9-.4 20.6 2.1 18.8 5.8 33.7 19.7 39.9 37.3 4.5 12.7 4.8 18.9 4.8 88.1V440h-38v-61.2c0-36.8-.4-63-1-65.6-2.6-11.3-9.8-20.4-19.8-25-4.9-2.3-7-2.7-15.2-2.7-8.1.1-10.3.5-15.1 2.7-11.5 5.3-18.8 15.3-20.9 28.8-.6 3.9-1 30.1-1 64.8V440h-37v-95.5z"></path> </g> </g> </svg>
