<svg width="105" height="39" viewBox="0 0 105 39" fill="none" xmlns="http://www.w3.org/2000/svg">
<path d="M52.9507 25.8109H52.8992C52.6456 26.2718 52.2307 26.6304 51.7285 26.8228C51.2096 27.0472 50.4903 27.1593 49.5707 27.1593C48.0617 27.1423 46.9006 26.7447 46.0875 25.9664C45.2282 25.2059 44.799 24.2341 44.7998 23.0509C44.7998 21.9171 45.1724 20.9789 45.9177 20.2362C46.663 19.4758 47.7553 19.0866 49.1947 19.0688H52.9507V17.6463C52.9683 16.4558 52.0462 15.878 50.1843 15.9128C49.5078 15.9128 48.9746 15.982 48.5848 16.1205C48.1763 16.2866 47.8375 16.5805 47.6228 16.9551L45.4851 15.3321C46.5146 13.9902 48.0353 13.3366 50.0472 13.3714C51.7448 13.3536 53.1004 13.6735 54.1139 14.3311C55.1274 15.0049 55.643 16.1638 55.6606 17.8079V27.0038H52.9507V25.8109ZM52.9507 21.2955H49.6939C48.1137 21.3295 47.3319 21.8705 47.3487 22.9185C47.3495 23.1457 47.4053 23.3696 47.5117 23.5723C47.618 23.775 47.7719 23.9509 47.9611 24.0859C48.3517 24.4414 48.9989 24.6192 49.9026 24.6192C51.0394 24.6362 51.8425 24.5018 52.3119 24.2159C52.7378 23.93 52.9507 23.2821 52.9507 22.2722V21.2955Z" fill="#E5253B"/>
<path d="M58.7314 13.5387H61.4413V14.9661H61.4979C62.3907 13.902 63.5614 13.3703 65.01 13.3711C66.0538 13.3734 67.0615 13.7406 67.8469 14.4049L65.8676 16.7434C65.2942 16.2923 64.6998 16.0671 64.0845 16.0679C63.4206 16.0558 62.7788 16.2987 62.3002 16.7434C61.7444 17.1839 61.4581 17.8982 61.4413 18.8863V27.0035H58.7314V13.5387Z" fill="#E5253B"/>
<path d="M70.0943 21.2952C70.0943 22.378 70.4066 23.2 71.0312 23.7612C71.6138 24.3322 72.3775 24.6181 73.3223 24.6189C74.4238 24.6189 75.4084 24.1815 76.2761 23.3069L78.2415 24.9809C76.8633 26.4508 75.2424 27.1768 73.3789 27.159C72.673 27.1593 71.9714 27.054 71.299 26.8468C70.9536 26.7311 70.6225 26.5787 70.3119 26.3925C69.9714 26.2275 69.6526 26.0236 69.3625 25.7851C68.7899 25.2838 68.3263 24.5832 67.9717 23.6835C67.5811 22.8185 67.3857 21.694 67.3857 20.31C67.3857 18.9786 67.5534 17.8719 67.8887 16.99C68.2241 16.091 68.657 15.382 69.1877 14.8629C69.6933 14.355 70.3116 13.9646 70.9959 13.721C71.6191 13.4939 72.279 13.3754 72.945 13.3711C74.4875 13.3881 75.7919 13.8939 76.8583 14.8884C77.9422 15.8999 78.493 17.2924 78.5106 19.066V21.2952H70.0943ZM75.8045 19.0721C75.7693 18.0193 75.4868 17.2244 74.957 16.6875C74.4347 16.1748 73.7641 15.9185 72.945 15.9185C72.126 15.9185 71.4553 16.1748 70.9331 16.6875C70.4225 17.2244 70.143 18.0193 70.0943 19.0721H75.8045Z" fill="#E5253B"/>
<path d="M80.9258 13.5387H83.6356V14.9661H83.6872C84.58 13.902 85.7494 13.3703 87.1955 13.3711C88.313 13.3711 89.3353 13.7643 90.2625 14.5507C91.1897 15.337 91.6705 16.5044 91.7048 18.0529V27.0035H88.995V18.9774C88.995 18.0339 88.7435 17.3151 88.2405 16.8211C87.7375 16.3271 87.1 16.076 86.3279 16.0679C85.9703 16.0566 85.6143 16.1178 85.2827 16.2475C84.9511 16.3773 84.6514 16.5726 84.4027 16.8211C83.8905 17.3143 83.6348 18.0331 83.6356 18.9774V27.0035H80.9258V13.5387Z" fill="#E5253B"/>
<path d="M101.906 25.8105H101.855C101.602 26.2713 101.187 26.63 100.685 26.8224C100.165 27.0467 99.4455 27.1589 98.5267 27.1589C97.0177 27.1419 95.8567 26.7443 95.0435 25.966C94.1842 25.2055 93.755 24.2337 93.7559 23.0505C93.7559 21.9167 94.1285 20.9784 94.8737 20.2358C95.619 19.4753 96.7088 19.0862 98.1432 19.0684H101.906V17.6459C101.923 16.4554 101.001 15.8775 99.1391 15.9124C98.4626 15.9124 97.9294 15.9816 97.5396 16.1201C97.1311 16.2862 96.7923 16.5801 96.5776 16.9547L94.4399 15.3317C95.4702 13.9889 96.9905 13.3354 99.0008 13.371C100.698 13.3532 102.054 13.6731 103.067 14.3307C104.081 15.0045 104.597 16.1634 104.614 17.8074V27.0034H101.906V25.8105ZM101.906 21.2951H98.6487C97.0676 21.3291 96.2859 21.8701 96.3035 22.9181C96.3043 23.1453 96.3601 23.3692 96.4665 23.5719C96.5728 23.7746 96.7267 23.9505 96.9159 24.0855C97.3065 24.441 97.9537 24.6188 98.8574 24.6188C99.9942 24.6358 100.797 24.5013 101.267 24.2155C101.693 23.9296 101.906 23.2817 101.906 22.2718V21.2951Z" fill="#E5253B"/>
<path d="M20.0152 37.5079C30.106 37.5079 38.2863 29.6053 38.2863 19.857C38.2863 10.1086 30.106 2.20605 20.0152 2.20605C9.92438 2.20605 1.74414 10.1086 1.74414 19.857C1.74414 29.6053 9.92438 37.5079 20.0152 37.5079Z" fill="none"/>
<path d="M19.9938 0C16.0394 0 12.1738 1.13282 8.88585 3.2552C5.59789 5.37758 3.03523 8.3942 1.52195 11.9236C0.00866304 15.453 -0.387281 19.3366 0.384184 23.0834C1.15565 26.8302 3.05988 30.2718 5.85606 32.9731C8.65224 35.6744 12.2148 37.514 16.0932 38.2593C19.9716 39.0046 23.9917 38.622 27.6451 37.1601C31.2985 35.6982 34.4211 33.2225 36.6181 30.0462C38.815 26.8698 39.9876 23.1354 39.9876 19.3152C39.9876 14.1925 37.8811 9.2796 34.1316 5.65729C30.382 2.03499 25.2965 0 19.9938 0V0ZM27.1979 28.1553H12.7847C12.6992 28.1556 12.6147 28.1364 12.5383 28.0993C12.4618 28.0622 12.3955 28.0082 12.3446 27.9417C12.2938 27.8752 12.2599 27.7981 12.2457 27.7166C12.2315 27.635 12.2374 27.5514 12.2629 27.4725C12.8992 25.5119 15.0872 19.857 19.9636 19.857H20.0152C24.8011 19.857 27.0797 25.5119 27.716 27.4725C27.7412 27.5515 27.7468 27.6352 27.7325 27.7167C27.7181 27.7982 27.684 27.8752 27.6331 27.9417C27.5822 28.0082 27.5158 28.0621 27.4394 28.0992C27.3629 28.1363 27.2784 28.1555 27.1928 28.1553H27.1979ZM36.2818 13.5692C36.2818 13.5692 29.4739 18.7455 19.9938 18.7479C10.5137 18.7503 3.69698 13.5692 3.69698 13.5692C2.98525 13.0274 3.14369 12.5853 4.04907 12.5853H35.9285C36.8339 12.5853 36.9936 13.0274 36.2818 13.5692Z" fill="#E5253B"/>
</svg>
